<?xml version="1.0" standalone="no"?>
<!DOCTYPE svg PUBLIC "-//W3C//DTD SVG 20010904//EN"
 "http://www.w3.org/TR/2001/REC-SVG-20010904/DTD/svg10.dtd">
<svg version="1.0" xmlns="http://www.w3.org/2000/svg"
 width="175.000000pt" height="103.000000pt" viewBox="0 0 175.000000 103.000000"
 preserveAspectRatio="xMidYMid meet">

<g transform="translate(0.000000,103.000000) scale(0.100000,-0.100000)"
fill="#000000" stroke="none">
<path d="M882 1015 c-25 -29 -32 -69 -32 -191 l0 -124 -167 1 c-93 1 -178 4
-191 7 -22 7 -21 9 25 62 82 93 115 139 107 151 -4 7 -50 -32 -119 -101 l-112
-111 -116 121 c-63 67 -119 121 -124 121 -16 -1 -10 -46 12 -81 12 -19 59 -71
104 -114 45 -44 80 -83 79 -86 -2 -3 -58 -57 -125 -120 -67 -63 -122 -119
-122 -125 -2 -18 43 -13 79 10 19 12 74 62 122 111 l86 88 89 -80 c130 -118
207 -178 211 -164 3 7 11 5 26 -7 11 -10 -43 45 -121 121 -79 77 -143 143
-143 147 0 5 12 4 28 -2 18 -7 85 -8 200 -4 142 6 172 5 172 -6 0 -29 21 -195
26 -213 13 -41 24 11 24 115 l0 106 111 12 c61 7 112 11 114 9 1 -1 8 -48 14
-104 6 -55 17 -117 26 -137 l15 -37 103 83 c56 45 133 105 171 132 126 92 128
95 65 100 -19 1 -35 9 -38 18 -8 20 -147 130 -226 178 -39 23 -61 44 -63 58
-4 26 -7 26 -35 0 -20 -18 -22 -32 -25 -140 l-4 -119 -113 0 -112 0 4 165 c3
91 1 165 -3 165 -5 -1 -15 -7 -22 -15z m373 -167 c111 -94 185 -161 185 -167
0 -5 -43 -45 -94 -90 -52 -44 -107 -97 -122 -116 -14 -19 -30 -35 -35 -35 -11
0 -12 167 -2 339 5 110 8 120 22 108 9 -8 30 -25 46 -39z m-45 -422 c0 -2 -8
-10 -17 -17 -16 -13 -17 -12 -4 4 13 16 21 21 21 13z"/>
<path d="M1211 332 c-7 -13 -11 -26 -8 -28 8 -8 29 25 25 38 -3 8 -9 4 -17
-10z"/>
<path d="M1282 317 c-14 -16 -21 -228 -7 -224 6 2 12 21 15 43 7 55 30 50 47
-9 14 -50 40 -61 35 -16 -1 13 -4 41 -6 62 -2 21 -9 44 -15 50 -6 6 -11 16
-11 21 0 6 -5 28 -11 49 -10 38 -28 47 -47 24z m19 -120 c-8 -8 -11 -4 -11 14
0 33 14 47 18 19 2 -12 -1 -27 -7 -33z"/>
<path d="M1078 298 c-3 -7 -1 -31 3 -53 5 -22 8 -68 9 -102 0 -61 1 -63 26
-63 40 0 84 50 84 97 0 38 -28 98 -58 121 -20 16 -59 16 -64 0z m64 -49 c28
-37 34 -93 14 -124 -9 -14 -20 -25 -25 -25 -5 0 -11 33 -15 73 -4 39 -9 80
-13 91 -7 25 16 17 39 -15z"/>
<path d="M897 293 c-2 -4 -1 -57 2 -118 5 -88 9 -110 21 -110 17 0 19 28 8
110 l-7 50 25 -50 c25 -48 49 -75 66 -75 4 0 8 45 8 100 0 60 -4 100 -10 100
-6 0 -10 -23 -9 -52 2 -101 -8 -105 -44 -15 -22 56 -48 82 -60 60z"/>
<path d="M604 268 c-7 -10 3 -180 12 -210 9 -31 36 -9 31 25 l-4 30 26 -32
c14 -17 34 -31 44 -31 18 0 23 15 7 25 -5 3 -21 26 -36 50 -24 41 -24 46 -10
67 19 27 21 62 4 76 -16 13 -66 13 -74 0z m56 -31 c0 -7 -7 -22 -15 -33 -12
-16 -14 -17 -15 -2 0 23 11 48 21 48 5 0 9 -6 9 -13z"/>
<path d="M780 270 c-12 -7 -12 -22 -3 -95 12 -99 21 -114 58 -97 34 16 45 49
45 133 0 55 -3 69 -15 69 -11 0 -15 -12 -15 -47 0 -62 -10 -123 -21 -123 -4 0
-11 21 -14 48 -14 106 -19 122 -35 112z"/>
<path d="M1216 272 c-2 -4 -2 -52 1 -105 5 -77 9 -97 21 -97 13 0 14 12 8 77
-3 42 -6 89 -6 105 0 26 -13 38 -24 20z"/>
<path d="M507 258 c-26 -20 -42 -123 -25 -173 10 -32 19 -41 39 -43 62 -7 93
109 50 188 -21 39 -38 47 -64 28z m54 -88 c2 -58 -14 -104 -34 -97 -16 5 -21
115 -7 152 9 25 13 27 25 14 8 -8 15 -37 16 -69z"/>
<path d="M376 251 c-7 -10 10 -221 18 -229 3 -2 10 -1 17 3 8 5 10 24 6 57 -5
40 -3 52 13 68 25 25 36 68 23 89 -11 18 -68 27 -77 12z m47 -25 c7 -18 -3
-56 -14 -56 -5 0 -9 16 -9 35 0 35 13 47 23 21z"/>
</g>
</svg>
